<svg width="64" height="64" viewBox="0 0 64 64" fill="none" xmlns="http://www.w3.org/2000/svg">
<path d="M58.16 27.3333C58 27.2267 56.6667 26.1867 53.7867 26.1867C53.04 26.1867 52.2933 26.2667 51.5467 26.4C50.9867 22.6667 47.8667 20.7733 47.7333 20.6933L46.96 20.24L46.48 20.96C45.84 21.92 45.3333 23.0133 45.12 24.1333C44.5867 26.2667 44.9067 28.2933 46 30.0267C44.6933 30.7733 42.56 30.96 42.1067 30.96H6.98667C6.08 30.96 5.33334 31.7067 5.33334 32.64C5.33334 35.7067 5.81334 38.7733 6.88 41.6533C8.08 44.8267 9.89334 47.1733 12.2133 48.6133C14.8267 50.2133 19.12 51.12 24 51.12C26.1067 51.12 28.2933 50.9333 30.4533 50.5333C33.44 50 36.32 48.96 38.96 47.44C41.1464 46.1897 43.1034 44.5754 44.7467 42.6667C47.5467 39.5467 49.2 36 50.4 32.9333H50.9067C53.9467 32.9333 55.84 31.7067 56.88 30.6667C57.5733 30.0267 58.08 29.2533 58.4533 28.3467L58.6667 27.7067L58.16 27.3333ZM10.2667 29.9733H14.96C15.1733 29.9733 15.3867 29.7867 15.3867 29.5467V25.3333C15.3867 25.12 15.2 24.9067 14.96 24.9067H10.2667C10.0267 24.9067 9.84 25.0933 9.84 25.3333V29.5467C9.86667 29.7867 10.0267 29.9733 10.2667 29.9733ZM16.7467 29.9733H21.44C21.6533 29.9733 21.8667 29.7867 21.8667 29.5467V25.3333C21.8667 25.12 21.68 24.9067 21.44 24.9067H16.7467C16.5067 24.9067 16.32 25.0933 16.32 25.3333V29.5467C16.3467 29.7867 16.5067 29.9733 16.7467 29.9733ZM23.3333 29.9733H28C28.2667 29.9733 28.4533 29.7867 28.4533 29.5467V25.3333C28.4533 25.12 28.2933 24.9067 28 24.9067H23.3333C23.12 24.9067 22.9333 25.0933 22.9333 25.3333V29.5467C22.9333 29.7867 23.0933 29.9733 23.3333 29.9733ZM29.84 29.9733H34.56C34.7733 29.9733 34.96 29.7867 34.96 29.5467V25.3333C34.96 25.12 34.8 24.9067 34.56 24.9067H29.84C29.6267 24.9067 29.44 25.0933 29.44 25.3333V29.5467C29.44 29.7867 29.6267 29.9733 29.84 29.9733ZM16.7467 24H21.44C21.6533 24 21.8667 23.76 21.8667 23.52V19.3333C21.8667 19.0933 21.68 18.9067 21.44 18.9067H16.7467C16.5067 18.9067 16.32 19.0667 16.32 19.3333V23.52C16.3467 23.76 16.5067 24 16.7467 24ZM23.3333 24H28C28.2667 24 28.4533 23.76 28.4533 23.52V19.3333C28.4533 19.0933 28.2933 18.9067 28 18.9067H23.3333C23.12 18.9067 22.9333 19.0667 22.9333 19.3333V23.52C22.9333 23.76 23.0933 24 23.3333 24ZM29.84 24H34.56C34.7733 24 34.96 23.76 34.96 23.52V19.3333C34.96 19.0933 34.7733 18.9067 34.56 18.9067H29.84C29.6267 18.9067 29.44 19.0667 29.44 19.3333V23.52C29.44 23.76 29.6267 24 29.84 24ZM29.84 17.92H34.56C34.7733 17.92 34.96 17.7333 34.96 17.4933V13.3333C34.96 13.0667 34.7733 12.88 34.56 12.88H29.84C29.6267 12.88 29.44 13.04 29.44 13.3333V17.4933C29.44 17.7067 29.6267 17.92 29.84 17.92ZM36.4 29.9733H41.0933C41.3333 29.9733 41.52 29.7867 41.52 29.5467V25.3333C41.52 25.12 41.3333 24.9067 41.0933 24.9067H36.4C36.1867 24.9067 36 25.0933 36 25.3333V29.5467C36 29.7867 36.1867 29.9733 36.4 29.9733Z" fill="white"/>
</svg>
