<svg width="64" height="64" viewBox="0 0 64 64" fill="none" xmlns="http://www.w3.org/2000/svg">
<path d="M64 49.568C63.0685 49.9197 62.0406 49.9186 61.1098 49.565C60.179 49.2113 59.4097 48.5295 58.9467 47.648L49.7467 34.9253L48.4134 33.1466L37.7387 47.664C37.304 48.5089 36.5764 49.1666 35.692 49.5141C34.8076 49.8616 33.827 49.875 32.9334 49.552L46.688 31.0986L33.8934 14.4293C34.8134 14.0978 35.8195 14.0934 36.7423 14.4169C37.6652 14.7403 38.4484 15.372 38.96 16.2053L48.496 29.0853L58.0854 16.2586C58.5234 15.4287 59.2512 14.7887 60.1303 14.4603C61.0093 14.1319 61.9785 14.1379 62.8534 14.4773L57.888 21.0666L51.1627 29.8213C50.9759 29.9879 50.8265 30.1921 50.7242 30.4205C50.6218 30.6489 50.5689 30.8964 50.5689 31.1466C50.5689 31.3969 50.6218 31.6444 50.7242 31.8728C50.8265 32.1012 50.9759 32.3054 51.1627 32.472L63.9734 49.5706L64 49.568ZM0.00536828 30.8693L1.12537 25.336C4.2027 14.3946 16.7467 9.84265 25.376 16.616C30.4294 20.5866 31.6907 26.208 31.4427 32.544H2.97604C2.5147 43.8587 10.68 50.6907 21.12 47.2C22.8122 46.5904 24.3269 45.5707 25.5284 44.2323C26.73 42.8939 27.5811 41.2785 28.0054 39.5306C28.5574 37.7546 29.4667 37.4506 31.136 37.9626C30.8573 40.1288 30.0913 42.2037 28.8955 44.0313C27.6997 45.8589 26.1053 47.3917 24.232 48.5146C21.1374 50.2083 17.5863 50.8798 14.0869 50.4329C10.5875 49.986 7.31908 48.4437 4.74937 46.0266C2.20895 43.1658 0.673201 39.5531 0.376035 35.7386C0.376035 35.112 0.162702 34.5253 0.0187016 33.9626C0.00569502 32.9325 -0.000527339 31.9022 3.49506e-05 30.872L0.00536828 30.8693ZM3.0107 30.1066H28.7547C28.5947 21.904 23.4187 16.0853 16.5147 16.032C8.82937 15.9253 3.3307 21.616 2.99203 30.0693L3.0107 30.1066Z" fill="white"/>
</svg>
