<svg width="64" height="64" viewBox="0 0 64 64" fill="none" xmlns="http://www.w3.org/2000/svg">
<path d="M32 26.6667C33.0609 26.6667 34.0783 26.2453 34.8284 25.4951C35.5786 24.745 36 23.7276 36 22.6667C36 21.6058 35.5786 20.5884 34.8284 19.8383C34.0783 19.0881 33.0609 18.6667 32 18.6667C30.9391 18.6667 29.9217 19.0881 29.1716 19.8383C28.4214 20.5884 28 21.6058 28 22.6667C28 23.7276 28.4214 24.745 29.1716 25.4951C29.9217 26.2453 30.9391 26.6667 32 26.6667ZM32 26.6667V40M32 40C33.0609 40 34.0783 40.4214 34.8284 41.1716C35.5786 41.9217 36 42.9392 36 44C36 45.0609 35.5786 46.0783 34.8284 46.8284C34.0783 47.5786 33.0609 48 32 48C30.9391 48 29.9217 47.5786 29.1716 46.8284C28.4214 46.0783 28 45.0609 28 44C28 42.9392 28.4214 41.9217 29.1716 41.1716C29.9217 40.4214 30.9391 40 32 40ZM22 12.6667L28 18.6667M35.3333 26L39.3333 30M43.3333 38C44.3942 38 45.4116 37.5786 46.1618 36.8284C46.9119 36.0783 47.3333 35.0609 47.3333 34C47.3333 32.9392 46.9119 31.9217 46.1618 31.1716C45.4116 30.4214 44.3942 30 43.3333 30C42.2725 30 41.2551 30.4214 40.5049 31.1716C39.7548 31.9217 39.3333 32.9392 39.3333 34C39.3333 35.0609 39.7548 36.0783 40.5049 36.8284C41.2551 37.5786 42.2725 38 43.3333 38Z" stroke="#FE6601" stroke-opacity="0.75" stroke-width="1.5" stroke-linecap="round" stroke-linejoin="round"/>
<path d="M30.8693 3.79733C31.1693 3.4977 31.576 3.32941 32 3.32941C32.424 3.32941 32.8307 3.4977 33.1307 3.79733L60.2027 30.8693C60.5023 31.1693 60.6706 31.576 60.6706 32C60.6706 32.424 60.5023 32.8307 60.2027 33.1307L33.1307 60.2027C32.8307 60.5023 32.424 60.6706 32 60.6706C31.576 60.6706 31.1693 60.5023 30.8693 60.2027L3.79733 33.1307C3.4977 32.8307 3.32941 32.424 3.32941 32C3.32941 31.576 3.4977 31.1693 3.79733 30.8693L30.8693 3.79733Z" stroke="#FE6601" stroke-opacity="0.75" stroke-width="1.5" stroke-linecap="round" stroke-linejoin="round"/>
</svg>
