<svg width="64" height="64" viewBox="0 0 64 64" fill="none" xmlns="http://www.w3.org/2000/svg">
<path d="M32 5.33331C28.4981 5.33331 25.0305 6.02307 21.7951 7.36319C18.5598 8.70332 15.62 10.6676 13.1438 13.1438C8.14284 18.1448 5.33333 24.9275 5.33333 32C5.33333 43.7866 12.9867 53.7866 23.5733 57.3333C24.9067 57.5466 25.3333 56.72 25.3333 56V51.4933C17.9467 53.0933 16.3733 47.92 16.3733 47.92C15.1467 44.8266 13.4133 44 13.4133 44C10.9867 42.3466 13.6 42.4 13.6 42.4C16.2667 42.5866 17.68 45.1466 17.68 45.1466C20 49.2 23.92 48 25.44 47.36C25.68 45.6266 26.3733 44.4533 27.12 43.7866C21.2 43.12 14.9867 40.8266 14.9867 30.6666C14.9867 27.7066 16 25.3333 17.7333 23.44C17.4667 22.7733 16.5333 20 18 16.4C18 16.4 20.24 15.68 25.3333 19.12C27.44 18.5333 29.7333 18.24 32 18.24C34.2667 18.24 36.56 18.5333 38.6667 19.12C43.76 15.68 46 16.4 46 16.4C47.4667 20 46.5333 22.7733 46.2667 23.44C48 25.3333 49.0133 27.7066 49.0133 30.6666C49.0133 40.8533 42.7733 43.0933 36.8267 43.76C37.7867 44.5866 38.6667 46.2133 38.6667 48.6933V56C38.6667 56.72 39.0933 57.5733 40.4533 57.3333C51.04 53.76 58.6667 43.7866 58.6667 32C58.6667 28.4981 57.9769 25.0304 56.6368 21.7951C55.2967 18.5597 53.3324 15.62 50.8562 13.1438C48.3799 10.6676 45.4402 8.70332 42.2049 7.36319C38.9695 6.02307 35.5019 5.33331 32 5.33331Z" fill="#FE6601" fill-opacity="0.75"/>
</svg>
