<svg width="64" height="64" viewBox="0 0 64 64" fill="none" xmlns="http://www.w3.org/2000/svg">
<path d="M61.0133 27.76C58.3024 30.025 54.804 31.1229 51.285 30.813C47.766 30.5031 44.5134 28.8106 42.24 26.1067C37.4933 20.4533 38.24 12 43.8667 7.33334L45.2267 6.32C43.0203 8.71237 41.7602 11.8261 41.6816 15.0796C41.6031 18.3331 42.7116 21.504 44.8 24C49.1467 29.1733 56.6667 30.1867 62.24 26.5867L61.0133 27.76ZM56.2667 38.6667C54.2589 40.3597 51.9365 41.6395 49.4329 42.4328C46.9292 43.226 44.2935 43.517 41.6771 43.2891C39.0607 43.0611 36.5151 42.3187 34.1863 41.1045C31.8575 39.8902 29.7915 38.2281 28.1067 36.2133C20.9867 27.76 22.1067 15.1467 30.56 8L33.0133 6.29333C29.8455 9.88163 28.0709 14.4878 28.0121 19.2739C27.9534 24.0601 29.6145 28.7084 32.6933 32.3733C39.1467 40 50.1334 41.68 58.4267 36.5867L56.2667 38.6667ZM53.2533 51.68C41.4133 61.6267 23.7333 60.08 13.7867 48.2133C3.86668 36.3733 5.41335 18.6667 17.2533 8.77334L20.2133 6.66667C10.8533 16.8 10.2667 32.6133 19.4133 43.52C28.56 54.4 44.24 56.5867 55.8933 49.1467L53.2533 51.68Z" fill="white"/>
</svg>
