<svg width="64" height="64" viewBox="0 0 64 64" fill="none" xmlns="http://www.w3.org/2000/svg">
<path d="M46 10H18C13.5817 10 10 13.5817 10 18V46C10 50.4183 13.5817 54 18 54H46C50.4183 54 54 50.4183 54 46V18C54 13.5817 50.4183 10 46 10Z" stroke="white" stroke-width="1.5" stroke-linecap="round" stroke-linejoin="round"/>
<path d="M30.6667 30V42C30.6667 43.0609 30.2452 44.0783 29.4951 44.8284C28.7449 45.5786 27.7275 46 26.6667 46H24M46 30H42C40.9391 30 39.9217 30.4214 39.1716 31.1716C38.4214 31.9217 38 32.9391 38 34C38 35.0609 38.4214 36.0783 39.1716 36.8284C39.9217 37.5786 40.9391 38 42 38C43.0609 38 44.0783 38.4214 44.8284 39.1716C45.5786 39.9217 46 40.9391 46 42C46 43.0609 45.5786 44.0783 44.8284 44.8284C44.0783 45.5786 43.0609 46 42 46H38" stroke="white" stroke-width="1.5" stroke-linecap="round" stroke-linejoin="round"/>
</svg>
