<svg width="128" height="64" viewBox="0 0 128 64" fill="none" xmlns="http://www.w3.org/2000/svg">
<path d="M0.5 20C0.5 9.23045 9.23045 0.5 20 0.5H127.5V44C127.5 54.7696 118.77 63.5 108 63.5H0.5V20Z" fill="#28282B" fill-opacity="0.75"/>
<path d="M0.5 20C0.5 9.23045 9.23045 0.5 20 0.5H127.5V44C127.5 54.7696 118.77 63.5 108 63.5H0.5V20Z" stroke="#EDEDF2"/>
<path d="M56.8672 23L59.0938 9.66992H63.7617C64.6016 9.66992 65.2917 9.75456 65.832 9.92383C66.3789 10.0931 66.8639 10.4544 67.2871 11.0078C67.7103 11.5547 67.9219 12.2122 67.9219 12.9805C67.9219 14.5625 67.0885 15.6172 65.4219 16.1445C66.8086 16.7565 67.502 17.7624 67.502 19.1621C67.502 20.0801 67.1797 20.9492 66.5352 21.7695C65.8971 22.5898 64.6504 23 62.7949 23H56.8672ZM60.5586 15.1875H62.9316C63.9798 15.1875 64.6732 14.9824 65.0117 14.5723C65.3568 14.1556 65.5293 13.7194 65.5293 13.2637C65.5293 12.0983 64.7806 11.5156 63.2832 11.5156H61.1738L60.5586 15.1875ZM59.582 21.0371H62.2969C63.013 21.0371 63.5436 20.9785 63.8887 20.8613C64.2337 20.7376 64.5202 20.5098 64.748 20.1777C64.9759 19.8392 65.0898 19.4258 65.0898 18.9375C65.0898 18.4948 64.9694 18.1172 64.7285 17.8047C64.4941 17.4857 64.224 17.2773 63.918 17.1797C63.6185 17.0755 63.2051 17.0234 62.6777 17.0234H60.2559L59.582 21.0371ZM77.6484 20.1973C76.737 22.2285 75.2917 23.2441 73.3125 23.2441C72.0104 23.2441 70.985 22.8438 70.2363 22.043C69.4941 21.2422 69.123 20.1777 69.123 18.8496C69.123 17.1569 69.5918 15.7279 70.5293 14.5625C71.4733 13.3971 72.6842 12.8145 74.1621 12.8145C75.4902 12.8145 76.4928 13.2344 77.1699 14.0742C77.8535 14.9141 78.1953 16.0599 78.1953 17.5117C78.1953 17.7526 78.1855 18.013 78.166 18.293H71.3398C71.2943 18.5729 71.2715 18.8203 71.2715 19.0352C71.2715 19.7839 71.4505 20.3861 71.8086 20.8418C72.1732 21.2975 72.6875 21.5254 73.3516 21.5254C74.3802 21.5254 75.1615 20.9102 75.6953 19.6797L77.6484 20.1973ZM76.125 16.877C76.125 15.1973 75.474 14.3574 74.1719 14.3574C72.8242 14.3574 71.9583 15.1973 71.5742 16.877H76.125ZM81.877 23H79.6895L81.0469 14.8848H79.6895L79.9922 13.0684H81.3496C81.61 11.7012 82.0658 10.7148 82.7168 10.1094C83.3743 9.50391 84.2793 9.20117 85.4316 9.20117C86.0306 9.20117 86.4961 9.24349 86.8281 9.32812L86.6328 11.1543C86.3203 11.0762 85.985 11.0371 85.627 11.0371C84.3704 11.0371 83.6836 11.7142 83.5664 13.0684H85.7051L85.3926 14.8848H83.2344L81.877 23ZM90.0508 23.2539C89.3151 23.2539 88.6022 23.0911 87.9121 22.7656C87.2285 22.4401 86.7044 21.9258 86.3398 21.2227C85.9818 20.513 85.8027 19.6699 85.8027 18.6934C85.8027 17.1113 86.2682 15.7441 87.1992 14.5918C88.1302 13.4329 89.3477 12.8535 90.8516 12.8535C92.0885 12.8535 93.0781 13.2702 93.8203 14.1035C94.5625 14.9303 94.9336 16.0436 94.9336 17.4434C94.9336 18.8822 94.4909 20.2103 93.6055 21.4277C92.7201 22.6452 91.5352 23.2539 90.0508 23.2539ZM90.0703 21.4668C90.9557 21.4668 91.6068 21.0111 92.0234 20.0996C92.4401 19.1816 92.6484 18.2214 92.6484 17.2188C92.6484 15.5 91.9844 14.6406 90.6562 14.6406C89.7253 14.6406 89.0579 15.1322 88.6543 16.1152C88.2507 17.0983 88.0488 18.0781 88.0488 19.0547C88.0488 19.8815 88.2441 20.4902 88.6348 20.8809C89.0254 21.2715 89.5039 21.4668 90.0703 21.4668ZM98.3125 23H96.125L97.7852 13.0684H99.7969L99.3477 15.7734C100.201 13.7878 101.346 12.7949 102.785 12.7949C102.844 12.7949 102.932 12.7982 103.049 12.8047L102.766 15.2461C102.551 15.2331 102.388 15.2266 102.277 15.2266C101.737 15.2266 101.226 15.3698 100.744 15.6562C100.269 15.9427 99.8945 16.3301 99.6211 16.8184C99.3542 17.3001 99.1296 18.0944 98.9473 19.2012L98.3125 23ZM111.77 20.1973C110.858 22.2285 109.413 23.2441 107.434 23.2441C106.132 23.2441 105.106 22.8438 104.357 22.043C103.615 21.2422 103.244 20.1777 103.244 18.8496C103.244 17.1569 103.713 15.7279 104.65 14.5625C105.594 13.3971 106.805 12.8145 108.283 12.8145C109.611 12.8145 110.614 13.2344 111.291 14.0742C111.975 14.9141 112.316 16.0599 112.316 17.5117C112.316 17.7526 112.307 18.013 112.287 18.293H105.461C105.415 18.5729 105.393 18.8203 105.393 19.0352C105.393 19.7839 105.572 20.3861 105.93 20.8418C106.294 21.2975 106.809 21.5254 107.473 21.5254C108.501 21.5254 109.283 20.9102 109.816 19.6797L111.77 20.1973ZM110.246 16.877C110.246 15.1973 109.595 14.3574 108.293 14.3574C106.945 14.3574 106.079 15.1973 105.695 16.877H110.246Z" fill="#FE6601" fill-opacity="0.75"/>
<path d="M31.344 48.96C29.184 48.96 27.216 48.612 25.44 47.916C23.664 47.22 22.14 46.236 20.868 44.964C19.596 43.668 18.612 42.156 17.916 40.428C17.22 38.7 16.872 36.816 16.872 34.776C16.872 32.712 17.22 30.828 17.916 29.124C18.612 27.396 19.596 25.896 20.868 24.624C22.14 23.328 23.664 22.332 25.44 21.636C27.216 20.94 29.184 20.592 31.344 20.592C33.504 20.592 35.472 20.916 37.248 21.564C39.024 22.212 40.548 23.124 41.82 24.3C43.092 25.452 44.076 26.796 44.772 28.332C45.468 29.868 45.816 31.536 45.816 33.336C45.816 35.136 45.552 36.648 45.024 37.872C44.52 39.096 43.812 40.032 42.9 40.68C41.988 41.304 40.932 41.616 39.732 41.616C38.676 41.616 37.788 41.328 37.068 40.752C36.372 40.152 35.88 39.3 35.592 38.196C35.16 39.18 34.536 39.996 33.72 40.644C32.928 41.292 31.86 41.616 30.516 41.616C28.668 41.616 27.204 41.016 26.124 39.816C25.068 38.616 24.54 36.936 24.54 34.776C24.54 32.616 25.068 30.936 26.124 29.736C27.204 28.536 28.668 27.936 30.516 27.936C31.644 27.936 32.568 28.188 33.288 28.692C34.032 29.172 34.608 29.82 35.016 30.636V28.224H37.392V36.36C37.392 37.368 37.632 38.148 38.112 38.7C38.616 39.252 39.216 39.528 39.912 39.528C41.088 39.528 41.988 39.024 42.612 38.016C43.26 37.008 43.584 35.448 43.584 33.336C43.584 31.272 43.068 29.436 42.036 27.828C41.028 26.196 39.6 24.924 37.752 24.012C35.928 23.076 33.792 22.608 31.344 22.608C28.896 22.608 26.748 23.124 24.9 24.156C23.076 25.164 21.648 26.58 20.616 28.404C19.608 30.228 19.104 32.352 19.104 34.776C19.104 37.2 19.608 39.324 20.616 41.148C21.648 42.972 23.076 44.388 24.9 45.396C26.748 46.428 28.896 46.944 31.344 46.944C32.664 46.944 33.876 46.8 34.98 46.512C36.108 46.224 37.128 45.792 38.04 45.216L38.796 46.908C37.788 47.604 36.66 48.12 35.412 48.456C34.164 48.792 32.808 48.96 31.344 48.96ZM31.02 39.528C32.268 39.528 33.252 39.132 33.972 38.34C34.692 37.548 35.052 36.36 35.052 34.776C35.052 33.192 34.692 32.004 33.972 31.212C33.252 30.42 32.268 30.024 31.02 30.024C29.796 30.024 28.812 30.42 28.068 31.212C27.324 32.004 26.952 33.192 26.952 34.776C26.952 36.36 27.324 37.548 28.068 38.34C28.812 39.132 29.796 39.528 31.02 39.528Z" fill="#EDEDF2"/>
<path d="M76.8125 56.25C77.25 57.25 76.75 58.4375 75.75 58.875C75.5 59 75.25 59.0625 75 59.0625C74.1875 59.0625 73.4375 58.5625 73.125 57.8125L71.125 53.0625H58.8125L56.8125 57.8125C56.375 58.8125 55.25 59.3125 54.1875 58.875C53.1875 58.4375 52.6875 57.3125 53.125 56.25L63.125 32.25C63.4375 31.5 64.1875 31.0625 65 31.0625C65.75 31.0625 66.5 31.5 66.8125 32.25L76.8125 56.25ZM60.4375 49H69.5L65 38.25L60.4375 49ZM112.812 33.75L103.812 57.75C103.5 58.5 102.75 59.0625 101.938 59.0625C101.875 59.0625 101.875 59.0625 101.812 59.0625C101 59 100.25 58.4375 100 57.5625L95 40.1875L89.875 57.5625C89.625 58.4375 88.875 59 88.0625 59.0625C87.1875 59.0625 86.375 58.5625 86.125 57.75L77.125 33.75C76.6875 32.6875 77.25 31.5625 78.25 31.1875C79.3125 30.75 80.4375 31.3125 80.8125 32.3125L87.75 50.625L93.0625 32.4375C93.3125 31.625 94.0625 31.0625 95 31.0625C95.875 31.0625 96.625 31.625 96.875 32.5L102.188 50.6875L109.125 32.375C109.5 31.375 110.625 30.8125 111.688 31.1875C112.688 31.5625 113.25 32.6875 112.812 33.75Z" fill="#FE6601" fill-opacity="0.75"/>
</svg>
