<svg width="64" height="64" viewBox="0 0 64 64" fill="none" xmlns="http://www.w3.org/2000/svg">
<path d="M50.696 57.75C42.602 57.75 39.52 55.634 39.52 52.094C39.4959 51.5104 39.5878 50.9277 39.7903 50.3798C39.9927 49.8319 40.3018 49.3295 40.6996 48.9018C41.0974 48.474 41.5761 48.1294 42.1079 47.8878C42.6397 47.6461 43.2142 47.5123 43.798 47.494V46.988C42.8976 46.7874 42.0961 46.2771 41.5332 45.5461C40.9704 44.8152 40.6819 43.9099 40.718 42.988C40.718 40.504 42.832 39.262 45.13 38.756V38.572C43.7774 37.9894 42.6347 37.0082 41.8542 35.7593C41.0738 34.5104 40.6927 33.0531 40.762 31.582C40.762 26.706 44.212 23.442 50.696 23.442C52.1135 23.4188 53.5258 23.6206 54.88 24.04V23.26C54.8107 22.793 54.8502 22.3162 54.9953 21.8669C55.1404 21.4175 55.3873 21.0077 55.7167 20.6694C56.0461 20.3311 56.4491 20.0734 56.8944 19.9164C57.3397 19.7593 57.8153 19.7072 58.284 19.764H62.01V24.27H56.904V24.914C58.0896 25.5623 59.0682 26.5319 59.7273 27.7114C60.3864 28.891 60.6993 30.2326 60.63 31.582C60.63 36.412 57.226 39.63 50.696 39.63C49.4569 39.6466 48.2205 39.5076 47.016 39.216C46.5496 39.3661 46.1385 39.6521 45.8357 40.0373C45.5328 40.4225 45.3518 40.8893 45.316 41.378C45.316 42.574 46.328 43.172 48.444 43.172H54.88C60.766 43.172 63.296 45.702 63.296 50.024C63.296 55.036 59.896 57.75 50.696 57.75ZM53.686 48.276H45.5C45.1043 48.5557 44.7839 48.9288 44.5672 49.3621C44.3505 49.7955 44.2443 50.2757 44.258 50.76C44.258 52.6 45.638 53.702 49.318 53.702H52.26C56.078 53.702 57.78 52.736 57.78 50.714C57.78 49.194 56.674 48.276 53.686 48.276ZM55.02 31.948V31.166C55.02 28.728 53.502 27.486 50.696 27.486C47.89 27.486 46.374 28.726 46.374 31.166V31.946C46.374 34.338 47.89 35.626 50.696 35.626C53.502 35.626 55.02 34.338 55.02 31.946V31.948ZM4.46802 15.9H11.32L19.552 31.582H19.736L27.876 15.9H34.456V48H28.704V24.96H28.522L26.038 30.064L19.46 42.204L12.884 30.064L10.402 24.96H10.216V48H4.46802V15.9Z" fill="white"/>
</svg>
