<svg width="64" height="64" viewBox="0 0 64 64" fill="none" xmlns="http://www.w3.org/2000/svg">
<path fill-rule="evenodd" clip-rule="evenodd" d="M56 7.73199V41.408H55.992L56 41.796C56.0001 43.5571 55.419 45.269 54.3469 46.6661C53.2749 48.0633 51.7718 49.0677 50.0707 49.5236C48.3696 49.9794 46.5657 49.8612 44.9387 49.1873C43.3116 48.5134 41.9524 47.3214 41.0719 45.7963C40.1913 44.2712 39.8386 42.4981 40.0684 40.7521C40.2983 39.006 41.0979 37.3847 42.3431 36.1394C43.5884 34.8941 45.2098 34.0945 46.9558 33.8646C48.7018 33.6348 50.4749 33.9875 52 34.868V21.2L24 25.2V47.992C23.9992 49.7529 23.4174 51.4643 22.3448 52.8609C21.2723 54.2575 19.7689 55.2612 18.0678 55.7163C16.3667 56.1715 14.563 56.0527 12.9364 55.3783C11.3097 54.704 9.95095 53.5118 9.07086 51.9866C8.19077 50.4614 7.83848 48.6884 8.06864 46.9426C8.29879 45.1968 9.09853 43.5757 10.3438 42.3307C11.5891 41.0857 13.2104 40.2863 14.9563 40.0566C16.7021 39.8268 18.475 40.1795 20 41.06V12.28L56 7.73199ZM24 21.16L52 17.16V12.268L24 15.804V21.16Z" fill="white"/>
</svg>
