<svg width="64" height="64" viewBox="0 0 64 64" fill="none" xmlns="http://www.w3.org/2000/svg">
<path d="M8 40V24H17.3333C18.4 24 19.3333 24.4 20.1333 25.2C20.9333 26 21.3333 26.9333 21.3333 28V30.6667C21.3333 31.7333 20.9333 32.6667 20.1333 33.4667C19.3333 34.2667 18.4 34.6667 17.3333 34.6667H12V40H8ZM25.3333 40V24H29.3333V29.3333H34.6667V24H38.6667V40H34.6667V33.3333H29.3333V40H25.3333ZM44 40V24H53.3333C54.4 24 55.3333 24.4 56.1333 25.2C56.9333 26 57.3333 26.9333 57.3333 28V30.6667C57.3333 31.7333 56.9333 32.6667 56.1333 33.4667C55.3333 34.2667 54.4 34.6667 53.3333 34.6667H48V40H44ZM12 30.6667H17.3333V28H12V30.6667ZM48 30.6667H53.3333V28H48V30.6667Z" fill="white"/>
</svg>
