<svg width="64" height="64" viewBox="0 0 64 64" fill="none" xmlns="http://www.w3.org/2000/svg">
<path d="M32 26.96C34.7467 26.96 36.9867 29.2 36.9867 32C36.9867 34.6666 34.7467 36.9333 32 36.9333C29.2533 36.9333 27.0133 34.6666 27.0133 32C27.0133 29.2 29.2533 26.96 32 26.96ZM19.6533 53.3333C21.3333 54.3466 25.0133 52.8 29.2533 48.8C27.8667 47.2266 26.5067 45.52 25.2267 43.7333C23.0779 43.5262 20.9416 43.2057 18.8267 42.7733C17.4667 48.48 17.9733 52.4 19.6533 53.3333ZM21.5467 38.0266L20.7733 36.6666C20.48 37.44 20.1867 38.2133 20 38.96C20.72 39.12 21.52 39.2533 22.3467 39.3866L21.5467 38.0266ZM38.9867 36L41.1467 32L38.9867 28C38.1867 26.5866 37.3333 25.3333 36.56 24.08C35.12 24 33.6 24 32 24C30.4 24 28.88 24 27.44 24.08C26.6667 25.3333 25.8133 26.5866 25.0133 28L22.8533 32L25.0133 36C25.8133 37.4133 26.6667 38.6666 27.44 39.92C28.88 40 30.4 40 32 40C33.6 40 35.12 40 36.56 39.92C37.3333 38.6666 38.1867 37.4133 38.9867 36ZM32 18.08C31.4933 18.6666 30.96 19.28 30.4267 20H33.5733C33.04 19.28 32.5067 18.6666 32 18.08ZM32 45.92C32.5067 45.3333 33.04 44.72 33.5733 44H30.4267C30.96 44.72 31.4933 45.3333 32 45.92ZM44.32 10.6666C42.6667 9.65331 38.9867 11.2 34.7467 15.2C36.1333 16.7733 37.4933 18.48 38.7733 20.2666C40.96 20.48 43.12 20.8 45.1733 21.2266C46.5333 15.52 46.0267 11.6 44.32 10.6666ZM42.4533 25.9733L43.2267 27.3333C43.52 26.56 43.8133 25.7866 44 25.04C43.28 24.88 42.48 24.7466 41.6533 24.6133L42.4533 25.9733ZM46.32 7.17331C50.24 9.41331 50.6667 15.3066 49.0133 22.1866C55.7867 24.1866 60.6667 27.4933 60.6667 32C60.6667 36.5066 55.7867 39.8133 49.0133 41.8133C50.6667 48.6933 50.24 54.5866 46.32 56.8266C42.4267 59.0666 37.12 56.5066 32 51.6266C26.88 56.5066 21.5733 59.0666 17.6533 56.8266C13.76 54.5866 13.3333 48.6933 14.9867 41.8133C8.21333 39.8133 3.33333 36.5066 3.33333 32C3.33333 27.4933 8.21333 24.1866 14.9867 22.1866C13.3333 15.3066 13.76 9.41331 17.6533 7.17331C21.5733 4.93331 26.88 7.49331 32 12.3733C37.12 7.49331 42.4267 4.93331 46.32 7.17331ZM45.5467 32C46.4533 34 47.2533 36 47.92 38.0266C53.52 36.3466 56.6667 33.9466 56.6667 32C56.6667 30.0533 53.52 27.6533 47.92 25.9733C47.2533 28 46.4533 30 45.5467 32ZM18.4533 32C17.5467 30 16.7467 28 16.08 25.9733C10.48 27.6533 7.33333 30.0533 7.33333 32C7.33333 33.9466 10.48 36.3466 16.08 38.0266C16.7467 36 17.5467 34 18.4533 32ZM42.4533 38.0266L41.6533 39.3866C42.48 39.2533 43.28 39.12 44 38.96C43.8133 38.2133 43.52 37.44 43.2267 36.6666L42.4533 38.0266ZM34.7467 48.8C38.9867 52.8 42.6667 54.3466 44.32 53.3333C46.0267 52.4 46.5333 48.48 45.1733 42.7733C43.12 43.2 40.96 43.52 38.7733 43.7333C37.4933 45.52 36.1333 47.2266 34.7467 48.8ZM21.5467 25.9733L22.3467 24.6133C21.52 24.7466 20.72 24.88 20 25.04C20.1867 25.7866 20.48 26.56 20.7733 27.3333L21.5467 25.9733ZM29.2533 15.2C25.0133 11.2 21.3333 9.65331 19.6533 10.6666C17.9733 11.6 17.4667 15.52 18.8267 21.2266C20.9416 20.7942 23.0779 20.4738 25.2267 20.2666C26.5067 18.48 27.8667 16.7733 29.2533 15.2Z" fill="white"/>
</svg>
