<svg width="64" height="64" viewBox="0 0 64 64" fill="none" xmlns="http://www.w3.org/2000/svg">
<path d="M32 5.33331C35.5019 5.33331 38.9695 6.02307 42.2049 7.36319C45.4402 8.70332 48.38 10.6676 50.8562 13.1438C53.3324 15.62 55.2967 18.5597 56.6368 21.7951C57.9769 25.0304 58.6667 28.4981 58.6667 32C58.6667 39.0724 55.8572 45.8552 50.8562 50.8562C45.8552 55.8571 39.0724 58.6666 32 58.6666C28.4981 58.6666 25.0305 57.9769 21.7951 56.6368C18.5598 55.2966 15.6201 53.3324 13.1438 50.8562C8.14285 45.8552 5.33334 39.0724 5.33334 32C5.33334 24.9275 8.14285 18.1448 13.1438 13.1438C18.1448 8.14283 24.9276 5.33331 32 5.33331ZM26.6667 40.88C27.0933 42.32 27.04 43.6533 26.6667 44.88C26.6667 45.0133 26.56 45.1466 26.5067 45.3333C26.4533 45.3333 26.4 45.52 26.32 45.6533C26.0267 46.2933 25.6 46.9066 25.0933 47.44C23.5467 49.1466 21.3333 49.7866 20.4533 49.2533C19.44 48.6666 20 46.2666 21.76 44.3733C23.68 42.3466 26.4533 41.0133 26.4533 41.0133L26.6667 40.88ZM48.72 16.7466C47.52 12 39.6533 10.4533 32.24 13.0933C27.8133 14.6666 23.0133 17.12 19.5733 20.3466C15.4933 24.1866 14.8267 27.52 15.0933 28.9066C16 33.8133 22.7733 37.04 25.5467 39.4133V39.44C24.7467 39.84 18.7733 42.8533 17.3333 45.9466C15.8933 49.2 17.6 51.5466 18.6667 51.8666C22.24 52.8266 25.84 51.0933 27.76 48.1866C29.6267 45.4133 29.4933 41.8133 28.6667 40C29.7867 39.7333 31.0933 39.6 32.7467 39.7866C37.44 40.3466 38.3467 43.2533 38.16 44.48C38 45.7066 37.0133 46.3733 36.6933 46.5866C36.3733 46.7733 36.2667 46.8533 36.2933 47.0133C36.32 47.2266 36.48 47.2266 36.7467 47.1733C37.1467 47.0933 39.2267 46.1866 39.3067 43.92C39.4133 41.04 36.6667 37.84 31.8133 37.92C29.8133 37.9733 28.56 38.16 27.6533 38.5066L27.44 38.2666C24.4267 35.0666 18.88 32.8 19.12 28.48C19.2 26.9066 19.7333 22.8 29.7867 17.7866C38 13.68 44.5867 14.8 45.7333 17.3333C47.36 20.88 42.2133 27.52 33.68 28.48C30.4267 28.8533 28.6933 27.5733 28.2667 27.12C27.8133 26.6666 27.76 26.5866 27.6 26.6666C27.3067 26.8533 27.4933 27.28 27.6 27.5466C27.84 28.2133 28.9067 29.3333 30.6667 29.9733C32.24 30.48 36.08 30.7733 40.6933 28.9866C45.8667 26.9866 49.92 21.4133 48.72 16.7466Z" fill="#FE6601" fill-opacity="0.75"/>
</svg>
