<svg width="65" height="65" viewBox="0 0 65 65" fill="none" xmlns="http://www.w3.org/2000/svg">
<path d="M31.5776 34.1637C31.5776 35.7125 31.584 37.2624 31.5968 38.8133H33.3952C33.3952 37.4309 33.4144 35.8917 33.4144 34.1637C33.6687 27.2468 33.3616 20.3206 32.496 13.4533C31.6304 20.3206 31.3233 27.2468 31.5776 34.1637ZM32.496 0.333328C26.167 0.333328 19.9801 2.2101 14.7177 5.7263C9.45538 9.2425 5.35386 14.2402 2.93186 20.0875C0.509852 25.9347 -0.123855 32.3688 1.11087 38.5762C2.3456 44.7836 5.3933 50.4855 9.86858 54.9607C14.3439 59.436 20.0457 62.4837 26.2531 63.7184C32.4605 64.9532 38.8946 64.3195 44.7419 61.8975C50.5891 59.4755 55.5868 55.3739 59.103 50.1116C62.6192 44.8492 64.496 38.6623 64.496 32.3333C64.496 28.131 63.6683 23.9699 62.0601 20.0875C60.452 16.205 58.0949 12.6774 55.1234 9.70591C52.1519 6.73443 48.6243 4.37733 44.7419 2.76918C40.8594 1.16103 36.6983 0.333328 32.496 0.333328ZM22.1888 49.5013C21.6462 49.5435 21.1017 49.4494 20.6048 49.2275C20.108 49.0056 19.6744 48.6629 19.3437 48.2308C19.013 47.7986 18.7955 47.2906 18.7112 46.753C18.6269 46.2154 18.6783 45.6652 18.8608 45.1525C19.3386 45.5013 19.8869 45.7416 20.4672 45.8566C21.0476 45.9716 21.646 45.9584 22.2208 45.8181C22.9268 45.59 23.5616 45.1826 24.063 44.6357C24.5645 44.0889 24.9154 43.4212 25.0816 42.6981H27.3984C26.768 47.3733 24.544 49.5013 22.1888 49.5013ZM32.496 56.4197C30.0616 55.1265 27.8754 53.4126 26.0384 51.3573C27.9732 48.8632 29.1188 45.8478 29.328 42.6981H31.6608C31.6668 45.8099 31.9463 48.9152 32.496 51.9781C33.044 48.915 33.3235 45.8099 33.3312 42.6981H35.664C35.8742 45.8471 37.0184 48.8618 38.9504 51.3573C37.1144 53.4123 34.9292 55.1262 32.496 56.4197ZM42.8032 49.4981C40.448 49.4981 38.224 47.3701 37.5968 42.6981H39.9168C40.0856 43.4196 40.4371 44.0855 40.9375 44.6319C41.4379 45.1783 42.0705 45.5868 42.7744 45.8181C43.3496 45.9589 43.9487 45.9723 44.5296 45.8573C45.1106 45.7424 45.6594 45.5018 46.1376 45.1525C46.3197 45.6656 46.3706 46.216 46.2856 46.7537C46.2007 47.2915 45.9826 47.7994 45.6512 48.2313C45.3197 48.6632 44.8856 49.0054 44.3882 49.2266C43.8907 49.4479 43.3459 49.5412 42.8032 49.4981ZM48.7456 40.1765C49.1255 39.5922 49.3582 38.9244 49.4237 38.2305C49.4892 37.5365 49.3856 36.8371 49.1217 36.1919C48.8578 35.5468 48.4415 34.9752 47.9084 34.5261C47.3753 34.0771 46.7414 33.7638 46.0608 33.6133C45.3044 33.5281 44.5386 33.5963 43.8091 33.8137C43.0797 34.0311 42.4015 34.3933 41.8152 34.8787C41.2289 35.3641 40.7464 35.9627 40.3965 36.6387C40.0467 37.3147 39.8368 38.0543 39.7792 38.8133H42.1984C42.4532 39.1396 42.5916 39.5417 42.5916 39.9557C42.5916 40.3697 42.4532 40.7718 42.1984 41.0981H22.8032C22.546 40.7735 22.406 40.3715 22.406 39.9573C22.406 39.5431 22.546 39.1411 22.8032 38.8165H25.2192C25.162 38.0572 24.9524 37.3173 24.6027 36.6409C24.2531 35.9645 23.7707 35.3655 23.1843 34.8798C22.5979 34.3941 21.9196 34.0316 21.1899 33.814C20.4603 33.5964 19.6942 33.5281 18.9376 33.6133C18.2565 33.7625 17.6219 34.0748 17.088 34.5232C16.5541 34.9716 16.1369 35.5428 15.8723 36.1878C15.6077 36.8329 15.5035 37.5325 15.5686 38.2266C15.6338 38.9208 15.8664 39.5888 16.2464 40.1733C14.2352 39.9583 12.3835 38.9789 11.0739 37.4375C9.76421 35.8961 9.0967 33.9106 9.20926 31.8911C9.32182 29.8716 10.2058 27.9725 11.6787 26.5862C13.1515 25.1999 15.1006 24.4323 17.1232 24.4421C23.2192 24.4421 27.2 30.9957 27.5392 38.8101H29.4592C29.1328 29.7989 24.3008 26.2885 24.3008 20.3077C24.3008 13.8373 30.9536 8.00693 32.496 6.47413C34.0352 8.00693 40.688 13.8341 40.688 20.3077C40.688 26.2885 35.8592 29.7989 35.5424 38.8133H37.4624C37.8048 30.9989 41.7856 24.4453 47.8784 24.4453C49.9761 24.4411 51.9899 25.2692 53.4777 26.7481C54.9656 28.2269 55.8059 30.2356 55.8144 32.3333C55.8082 34.2815 55.0836 36.159 53.7793 37.6062C52.475 39.0533 50.6827 39.9686 48.7456 40.1765Z" fill="white"/>
</svg>
