<svg width="64" height="64" viewBox="0 0 64 64" fill="none" xmlns="http://www.w3.org/2000/svg">
<path d="M26.6667 13.3333L32 8M21.3333 42.6667L42.6667 21.3333M32 56L37.3333 50.6667M44 50.6667C45.7681 50.6667 47.4638 49.9643 48.714 48.714C49.9643 47.4638 50.6667 45.7681 50.6667 44C50.6667 42.2319 49.9643 40.5362 48.714 39.286C47.4638 38.0357 45.7681 37.3333 44 37.3333C42.2319 37.3333 40.5362 38.0357 39.286 39.286C38.0357 40.5362 37.3333 42.2319 37.3333 44C37.3333 45.7681 38.0357 47.4638 39.286 48.714C40.5362 49.9643 42.2319 50.6667 44 50.6667ZM20 26.6667C21.7681 26.6667 23.4638 25.9643 24.714 24.714C25.9643 23.4638 26.6667 21.7681 26.6667 20C26.6667 18.2319 25.9643 16.5362 24.714 15.286C23.4638 14.0357 21.7681 13.3333 20 13.3333C18.2319 13.3333 16.5362 14.0357 15.286 15.286C14.0357 16.5362 13.3333 18.2319 13.3333 20C13.3333 21.7681 14.0357 23.4638 15.286 24.714C16.5362 25.9643 18.2319 26.6667 20 26.6667ZM14.6667 56C16.4348 56 18.1305 55.2976 19.3807 54.0474C20.631 52.7971 21.3333 51.1014 21.3333 49.3333C21.3333 47.5652 20.631 45.8695 19.3807 44.6193C18.1305 43.369 16.4348 42.6667 14.6667 42.6667C12.8986 42.6667 11.2029 43.369 9.95262 44.6193C8.70238 45.8695 8 47.5652 8 49.3333C8 51.1014 8.70238 52.7971 9.95262 54.0474C11.2029 55.2976 12.8986 56 14.6667 56ZM49.3333 21.3333C51.1014 21.3333 52.7971 20.631 54.0474 19.3807C55.2976 18.1305 56 16.4348 56 14.6667C56 12.8986 55.2976 11.2029 54.0474 9.95262C52.7971 8.70238 51.1014 8 49.3333 8C47.5652 8 45.8695 8.70238 44.6193 9.95262C43.369 11.2029 42.6667 12.8986 42.6667 14.6667C42.6667 16.4348 43.369 18.1305 44.6193 19.3807C45.8695 20.631 47.5652 21.3333 49.3333 21.3333Z" stroke="white" stroke-width="2" stroke-linecap="round" stroke-linejoin="round"/>
</svg>
