<svg width="64" height="64" viewBox="0 0 64 64" fill="none" xmlns="http://www.w3.org/2000/svg">
<path d="M6.66666 32C6.66666 20.0587 6.66666 14.0854 10.376 10.376C14.0853 6.66669 20.056 6.66669 32 6.66669C43.9413 6.66669 49.9147 6.66669 53.624 10.376C57.3333 14.0854 57.3333 20.056 57.3333 32C57.3333 43.9414 57.3333 49.9147 53.624 53.624C49.9147 57.3334 43.944 57.3334 32 57.3334C20.0587 57.3334 14.0853 57.3334 10.376 53.624C6.66666 49.9147 6.66666 43.944 6.66666 32Z" stroke="white" stroke-width="1.5" stroke-linecap="round" stroke-linejoin="round"/>
<path d="M48 32H43.2C42.3513 32 41.5373 32.3371 40.9372 32.9373C40.3371 33.5374 40 34.3513 40 35.2V36.8C40 37.6487 40.3371 38.4626 40.9372 39.0627C41.5373 39.6629 42.3513 40 43.2 40H44.8C45.6487 40 46.4626 40.3371 47.0627 40.9373C47.6628 41.5374 48 42.3513 48 43.2V44.8C48 45.6487 47.6628 46.4626 47.0627 47.0627C46.4626 47.6629 45.6487 48 44.8 48H40M22.6666 32H28M28 32H33.3333M28 32V48" stroke="white" stroke-width="1.5" stroke-linecap="round" stroke-linejoin="round"/>
</svg>
