<svg width="64" height="64" viewBox="0 0 64 64" fill="none" xmlns="http://www.w3.org/2000/svg">
<path fill-rule="evenodd" clip-rule="evenodd" d="M40.7467 6.15199C41.1977 5.68335 41.8044 5.39568 42.4527 5.34313C43.1009 5.29058 43.7461 5.47677 44.2667 5.86666L54.9333 13.8667C55.2645 14.1151 55.5333 14.4371 55.7185 14.8074C55.9036 15.1777 56 15.586 56 16V48C56 48.414 55.9036 48.8223 55.7185 49.1926C55.5333 49.5628 55.2645 49.8849 54.9333 50.1333L44.2667 58.1333C43.7461 58.5232 43.1009 58.7094 42.4527 58.6569C41.8044 58.6043 41.1977 58.3166 40.7467 57.848L23.7947 40.2213L15.0213 47.3973C14.5794 47.7589 14.0331 47.969 13.4628 47.9969C12.8925 48.0247 12.3284 47.8688 11.8533 47.552L7.85333 44.8853C7.52882 44.6689 7.25574 44.3839 7.05335 44.0504C6.85097 43.717 6.7242 43.3432 6.68199 42.9554C6.63978 42.5676 6.68315 42.1753 6.80906 41.8061C6.93496 41.4369 7.14032 41.0998 7.41066 40.8187L15.8933 32L7.41333 23.1813C7.14299 22.9001 6.93762 22.5631 6.81172 22.1939C6.68582 21.8247 6.64244 21.4324 6.68465 21.0446C6.72687 20.6568 6.85363 20.283 7.05602 19.9496C7.25841 19.6161 7.53149 19.3311 7.856 19.1147L11.856 16.448C12.331 16.1312 12.8952 15.9753 13.4655 16.0031C14.0358 16.031 14.5821 16.2411 15.024 16.6027L23.7973 23.7813L40.7467 6.15199ZM27.936 27.168L29.6293 28.5547L40 20.0693V14.6213L27.936 27.168ZM45.3333 13.3333V50.6667L50.6667 46.6667V17.3333L45.3333 13.3333ZM40 49.3787V43.9307L15.4347 23.832L40 49.3787ZM40 37.04V26.96L33.84 32L40 37.04ZM19.5893 35.848L15.4347 40.168L20.0853 36.3627L19.5893 35.848Z" fill="#FE6601" fill-opacity="0.75"/>
</svg>
